<svg width="100" height="100" viewBox="0 0 100 100" fill="none" xmlns="http://www.w3.org/2000/svg">
<circle cx="50" cy="50" r="50" fill="white"/>
<path d="M37.5 60.5006C37.5002 63.9983 38.9476 66.8239 41.3226 68.7346L41.3229 68.7349C43.6541 70.6067 46.7547 71.5 50 71.5C53.2453 71.5 56.3459 70.6067 58.6771 68.7349L58.6772 68.7348C61.0558 66.8237 62.5 63.9976 62.5 60.5C62.5 59.8281 62.367 59.1811 62.123 58.5929M37.5 60.5006C37.4983 59.8436 37.6265 59.1927 37.8771 58.5853C38.1278 57.9777 38.4962 57.4257 38.9609 56.9609C39.4257 56.4962 39.9777 56.1278 40.5853 55.8771C41.1927 55.6265 41.8436 55.4983 42.5006 55.5H42.5V56L42.5013 55.5L57.4999 55.5C57.4999 55.5 57.5 55.5 57.5 55.5C58.4903 55.4998 59.4584 55.7937 60.2814 56.3444C61.1044 56.895 61.7454 57.6776 62.123 58.5929M37.5 60.5006C37.5 60.5009 37.5 60.5011 37.5 60.5013L38 60.5H37.5C37.5 60.5002 37.5 60.5004 37.5 60.5006ZM62.123 58.5929C62.1231 58.593 62.1232 58.5932 62.1232 58.5933L61.661 58.784L62.1228 58.5924C62.1229 58.5926 62.123 58.5927 62.123 58.5929ZM55.0288 40.1457L55.0287 40.1457L55.034 40.1497L55.16 40.2457L55.16 40.2458L55.1653 40.2497C56.5442 41.2718 58.2715 41.707 59.9701 41.4603C61.6688 41.2136 63.2009 40.3051 64.2321 38.9329C65.2634 37.5607 65.71 35.8364 65.4745 34.1361C65.239 32.4359 64.3406 30.8978 62.9752 29.8575C61.6099 28.8173 59.8885 28.3593 58.1867 28.5835C56.485 28.8078 54.941 29.6961 53.8918 31.0545C52.8425 32.4129 52.3732 34.1313 52.5862 35.8345C52.7992 37.5377 53.6773 39.0875 55.0288 40.1457ZM41.9818 44.1655L42.2153 43.5H41.51H33.5C32.1739 43.5 30.9021 44.0268 29.9645 44.9645C29.0268 45.9021 28.5 47.1739 28.5 48.5C28.5 51.9979 29.9475 54.8237 32.3226 56.7346L32.3241 56.7358C33.2107 57.4432 34.1962 58.0168 35.2492 58.4382L35.731 58.631L35.9058 58.1424C36.392 56.7831 37.2866 55.6073 38.4671 54.7762C39.6476 53.9452 41.0561 53.4994 42.4998 53.5H42.5H43.292H44.408L43.6651 52.6672C42.6506 51.5297 41.9593 50.1412 41.6633 48.6461C41.3673 47.1509 41.4772 45.6038 41.9818 44.1655ZM64.0942 58.1424L64.2703 58.6346L64.7542 58.4368C65.8152 58.0031 66.7992 57.4365 67.6762 56.7356L67.6774 56.7346C70.0525 54.8237 71.5 51.9979 71.5 48.5C71.5 47.1739 70.9732 45.9021 70.0355 44.9645C69.0979 44.0268 67.8261 43.5 66.5 43.5H58.49H57.7843L58.0183 44.1658C58.3299 45.0524 58.5 46.0074 58.5 47C58.4999 49.0908 57.7293 51.1083 56.3353 52.6667L55.5899 53.5H56.708H57.5C60.5373 53.5 63.1252 55.4341 64.0942 58.1424ZM36.4038 30.4038C35.1848 31.6228 34.5 33.2761 34.5 35C34.5 36.7239 35.1848 38.3772 36.4038 39.5962C37.6228 40.8152 39.2761 41.5 41 41.5C42.7239 41.5 44.3772 40.8152 45.5962 39.5962C46.8152 38.3772 47.5 36.7239 47.5 35C47.5 33.2761 46.8152 31.6228 45.5962 30.4038C44.3772 29.1848 42.7239 28.5 41 28.5C39.2761 28.5 37.6228 29.1848 36.4038 30.4038ZM46.0081 41.7593C45.33 42.3108 44.7701 42.9935 44.3619 43.7665C43.5766 45.2535 43.3981 46.9871 43.8641 48.6029C44.33 50.2187 45.4041 51.591 46.8606 52.4316C48.3171 53.2722 50.0427 53.5156 51.6748 53.1106C53.307 52.7057 54.7187 51.6839 55.6134 50.26C56.0784 49.5198 56.3894 48.6935 56.5277 47.8304C56.666 46.9672 56.6288 46.0851 56.4183 45.2367C56.2078 44.3883 55.8284 43.591 55.3026 42.8927C54.7769 42.1943 54.1157 41.6091 53.3586 41.1722C52.6015 40.7352 51.7641 40.4555 50.8964 40.3497C50.0287 40.2439 49.1485 40.3142 48.3086 40.5564C47.4687 40.7986 46.6863 41.2077 46.0081 41.7593Z" fill="#00E593" stroke="black"/>
</svg>
