<svg width="100" height="100" viewBox="0 0 100 100" fill="none" xmlns="http://www.w3.org/2000/svg">
<circle cx="50" cy="50" r="50" fill="white"/>
<path d="M50.5514 22.5578L50.2682 22.2754L49.9858 22.5585L42.0571 30.5053C42.0569 30.5055 42.0567 30.5057 42.0565 30.5059C41.5553 31.0048 41.3028 31.5735 41.2687 32.1902C41.2353 32.7935 41.4126 33.4089 41.7061 34.0146L41.809 34.2359L41.6695 34.3665L41.668 34.3678L38.9946 36.894L38.6948 37.1773L38.9871 37.4682L41.4453 39.9151L41.7376 40.206L42.0194 39.9051L44.5321 37.2226L44.6627 37.0876L44.8755 37.1838C45.5234 37.5037 46.1435 37.6533 46.7337 37.5902C47.333 37.5262 47.8572 37.2477 48.3127 36.7921L48.3128 36.792L56.2652 28.834L56.5481 28.5509L56.2648 28.2681L55.5197 27.5246L55.2371 27.2425L54.9545 27.5246L50.0627 32.409L49.0706 31.4012L53.9445 26.5241L54.2257 26.2428L53.9458 25.96L52.948 24.9519L52.6646 24.6655L52.3803 24.9511L47.5089 29.8439L46.5146 28.8491L51.3873 23.9561L51.6694 23.6728L51.3864 23.3906L50.5514 22.5578ZM23.5646 22.8708L23.21 22.5164L22.9432 22.9409C22.2166 24.0975 22.1297 25.546 22.5167 27.1637C22.972 29.0834 24.1157 31.2749 25.6934 33.3273C27.2611 35.3792 28.713 36.7811 30.3192 37.7651C31.9266 38.7499 33.6634 39.3006 35.7766 39.6853L35.7766 39.6853L35.7825 39.6863L35.9094 39.7075C36.6483 40.582 37.3872 41.454 38.1259 42.3257C38.8962 43.2349 39.6663 44.1437 40.4364 45.0554L40.5562 45.1972H40.742H44.9447H45.911L45.2274 44.5143L23.5646 22.8708ZM35.8244 40.494L35.5512 40.1727L35.2448 40.4625L30.9696 44.5066L30.2395 45.1972H31.2445H36.8678H37.0405L37.1589 45.0715L38.2578 43.9047L38.5032 43.644L38.2713 43.3713L35.8244 40.494ZM22.9738 45.9832H22.5738V46.3832V53.5765L23.3533 53.7031L25.1323 48.3691H51.408L53.1859 53.703L53.9654 53.5765V46.3832V45.9832H53.5654H22.9738ZM26.3145 49.6082H26.0262L25.935 49.8817L24.8022 53.2801L24.6267 53.8066H25.1817H30.2838H30.572L30.6632 53.5333L31.7983 50.1349L31.9742 49.6082H31.4189H26.3145ZM33.5599 49.6082H33.2716L33.1805 49.8817L32.0477 53.2801L31.8722 53.8066H32.4271H37.2529H37.6529V53.4066V50.0082V49.6082H37.2529H33.5599ZM39.292 49.6082H38.892V50.0082V53.4066V53.8066H39.292H44.1177H44.6727L44.4972 53.2801L43.3644 49.8817L43.2732 49.6082H42.9849H39.292ZM45.1146 49.6082H44.5597L44.7352 50.1347L45.868 53.5331L45.9591 53.8066H46.2474H51.3564H51.9114L51.7359 53.2801L50.6031 49.8817L50.5119 49.6082H50.2236H45.1146ZM55.6798 49.8192L55.2045 49.728V50.2121V71.5316V71.9316H55.6045H64.5537H64.8719L64.9434 71.6216C65.3789 69.7346 67.0803 68.3066 69.0849 68.3066C71.0895 68.3066 72.791 69.7346 73.2264 71.6216L73.298 71.9316H73.6162H75.3154H75.7154V71.5316V64.2816V63.969L75.4121 63.8935L69.0457 62.3075L68.9981 62.2957H68.949H57.5904V53.8066H64.1799H64.8041L64.5433 53.2395L63.7616 51.5402L63.6756 51.3533L63.4736 51.3146L55.6798 49.8192ZM22.9738 55.0457H22.5738V55.4457V68.3824V68.5978L22.7536 68.7164L27.5307 71.8656L27.6309 71.9316H27.7509H29.4331H29.7523L29.8231 71.6203C30.252 69.7351 31.9511 68.3066 33.9678 68.3066C35.9723 68.3066 37.6738 69.7346 38.1092 71.6216L38.1808 71.9316H38.499H53.5654H53.9654V71.5316V55.4457V55.0457H53.5654H51.9795H51.5795V55.4457V64.1082H24.9597V55.4457V55.0457H24.5597H22.9738ZM59.2295 55.0457H58.8295V55.4457V60.6566V61.0566H59.2295H67.431H68.0782L67.7888 60.4777L65.1833 55.2668L65.0728 55.0457H64.8256H59.2295ZM27.3918 57.198H26.4261L27.1089 57.8809L28.9214 59.6934L29.0386 59.8105H29.2043H31.0168H31.1821L31.2992 59.6938L33.1173 57.8813L33.8028 57.198H32.8349H27.3918ZM26.4855 60.2566H26.0855V60.6566V62.6957V63.0957H26.4855H50.0537H50.4537V62.6957V60.6566V60.2566H50.0537H26.4855ZM33.9678 69.5457C32.2866 69.5457 30.951 70.8791 30.951 72.5511C30.951 74.2232 32.2866 75.5566 33.9678 75.5566C35.6387 75.5566 36.9732 74.2221 36.9732 72.5511C36.9732 70.8802 35.6387 69.5457 33.9678 69.5457ZM69.0849 69.5457C67.414 69.5457 66.0795 70.8802 66.0795 72.5511C66.0795 74.2221 67.414 75.5566 69.0849 75.5566C70.7558 75.5566 72.0904 74.2221 72.0904 72.5511C72.0904 70.8802 70.7558 69.5457 69.0849 69.5457Z" fill="#00E593" stroke="black" stroke-width="0.8"/>
</svg>
