<svg width="100" height="100" viewBox="0 0 100 100" fill="none" xmlns="http://www.w3.org/2000/svg">
<circle cx="50" cy="50" r="50" fill="white"/>
<path d="M71.4768 25.2754H70.9768L73.736 74.1714L73.7386 74.6714C73.7386 74.6714 73.7386 74.6714 73.7386 74.6714C74.6834 74.6666 75.6108 73.9321 76.4027 72.5553L76.4811 72.4189L76.4674 72.2622L74.3802 48.5122L74.38 48.5104L74.3714 48.4079L74.4286 48.329C74.4286 48.329 74.4286 48.329 74.4286 48.329C76.9318 44.8985 77.7669 39.0707 77.0723 34.1939C76.7236 31.7463 75.9901 29.4956 74.9348 27.8785C74.0495 26.5217 72.9491 25.5902 71.5854 25.2873L71.5319 25.2754H71.477H71.4768ZM29.2937 25.2759H28.7938L28.7937 25.7758L28.792 33.3969L28.369 33.3963V25.7764V25.2764H27.869H26.2485H25.7485L25.7485 25.7764L25.7488 33.396H25.3239V25.7764V25.2764H24.8239H23.1734H22.6734V25.7764L22.6734 38.2659C22.6734 38.2659 22.6734 38.2659 22.6734 38.2659C22.6734 39.047 22.875 39.693 23.2642 40.2155C23.6487 40.7317 24.1869 41.0879 24.7942 41.3467C24.7943 41.3467 24.7944 41.3468 24.7944 41.3468L24.944 41.4106L24.9403 41.6007C24.9403 41.6009 24.9403 41.6012 24.9403 41.6014C24.7722 49.1906 24.6056 56.7797 24.439 64.3688C24.381 67.0115 24.323 69.6542 24.2649 72.2969L24.2619 72.4357L24.3308 72.5562C25.1342 73.9603 26.0619 74.6762 27.0008 74.6714C27.9376 74.6666 28.8625 73.9386 29.6552 72.5525L29.7246 72.4312L29.721 72.2915C29.4586 62.0621 29.1965 51.8326 28.9347 41.6031L28.9298 41.4119L29.0767 41.35L29.0782 41.3494C29.7182 41.0776 30.279 40.6973 30.6813 40.1793C31.0886 39.6548 31.3129 39.0144 31.3129 38.2666V25.7759V25.2759H30.8129H29.2937ZM50 29.994C45.0193 29.994 40.2498 32.1075 36.7386 35.8577C33.2285 39.6067 31.2617 44.6848 31.2617 49.9734C31.2617 55.262 33.2285 60.3401 36.7386 64.0891C40.2498 67.8393 45.0193 69.9528 50 69.9528C54.9807 69.9528 59.7502 67.8393 63.2614 64.0891C66.7715 60.3401 68.7383 55.262 68.7383 49.9734C68.7383 44.6848 66.7715 39.6067 63.2614 35.8577C59.7502 32.1075 54.9807 29.994 50 29.994Z" fill="#00E593" stroke="black"/>
</svg>
