<svg width="100" height="100" viewBox="0 0 100 100" fill="none" xmlns="http://www.w3.org/2000/svg">
<circle cx="50" cy="50" r="50" fill="white"/>
<path d="M60.5526 28.949L60.9326 29.3933L61.3125 28.949C62.7917 27.2195 65.0954 26.1031 67.4576 26.1031C71.6522 26.1031 74.9326 29.3835 74.9326 33.5782C74.9326 36.1256 73.2876 38.9644 70.6042 42.0754C68.017 45.075 64.5528 48.2308 60.9331 51.5112C57.313 48.219 53.8485 45.0573 51.2609 42.0573C48.5769 38.9457 46.9326 36.1131 46.9326 33.5782C46.9326 29.3835 50.2129 26.1031 54.4076 26.1031C56.7697 26.1031 59.0734 27.2195 60.5526 28.949ZM53.5177 62.3252L53.5977 62.3531H53.6826H70.5992C72.8862 62.3531 74.7461 64.1178 74.9402 66.346L56.0775 73.4107L39.6826 68.7733V47.8531H43.8531L61.3097 54.3693C62.2351 54.733 62.8492 55.6154 62.8492 56.5848C62.8492 57.8795 61.7922 58.9365 60.4976 58.9365H53.7745L49.6071 57.35L49.1275 57.1674L48.9574 57.6517L48.1599 59.9234L47.9941 60.3959L48.4668 60.561L53.5177 62.3252ZM25.1826 47.8531H33.8492V73.4365H25.1826V47.8531Z" fill="#00E593" stroke="black"/>
</svg>
